<svg width="123" height="59" viewBox="0 0 123 59" fill="none" xmlns="http://www.w3.org/2000/svg">
<path fill-rule="evenodd" clip-rule="evenodd" d="M8 0C3.58172 0 0 3.58172 0 8V51C0 55.4183 3.58172 59 8 59H115C119.418 59 123 55.4183 123 51V8C123 3.58172 119.418 0 115 0H8ZM27.5639 43H22.169L14.6776 16.8182H20.7244L25.0582 35.0099H25.2756L30.0568 16.8182H35.2344L40.0028 35.0483H40.233L44.5668 16.8182H50.6136L43.1222 43H37.7273L32.7415 25.8821H32.5369L27.5639 43ZM53.5764 43V16.8182H60.4031L67.6133 34.4091H67.9201L75.1303 16.8182H81.957V43H76.5877V25.9588H76.3704L69.5948 42.8722H65.9386L59.163 25.8949H58.9457V43H53.5764ZM106.026 24.348H100.721C100.516 22.2898 98.8928 21.0881 96.2465 21.0881C93.5362 21.0881 92.0405 22.3281 92.0405 24.0156C92.0021 25.8949 93.907 26.7386 96.1825 27.2628L98.5348 27.8253C103.086 28.848 106.371 31.1619 106.384 35.5213C106.371 40.3153 102.613 43.3707 96.2209 43.3707C89.8672 43.3707 85.8146 40.4432 85.674 34.7798H91.0305C91.2095 37.4006 93.2805 38.7301 96.157 38.7301C98.9695 38.7301 100.785 37.4261 100.798 35.5085C100.785 33.7443 99.1996 32.9261 96.3487 32.2358L93.4979 31.5199C89.0746 30.4588 86.3516 28.2472 86.3643 24.3864C86.3388 19.6307 90.5447 16.4602 96.2848 16.4602C102.114 16.4602 105.95 19.6818 106.026 24.348Z" fill="white"/>
</svg>
