<svg width="20" height="16" viewBox="0 0 20 16" fill="none" xmlns="http://www.w3.org/2000/svg">
<path d="M9.99998 2.99996C11.5323 2.99486 13.0349 3.42228 14.3351 4.23306C15.6353 5.04385 16.6803 6.20509 17.35 7.58329C16.8666 8.57897 16.1829 9.46411 15.3416 10.1833L16.5166 11.3583C17.675 10.3333 18.5916 9.04996 19.1666 7.58329C17.725 3.92496 14.1666 1.33329 9.99998 1.33329C8.94165 1.33329 7.92498 1.49996 6.96665 1.80829L8.34165 3.18329C8.88331 3.07496 9.43331 2.99996 9.99998 2.99996ZM9.10831 3.94996L10.8333 5.67496C11.3083 5.88329 11.6916 6.26663 11.9 6.74163L13.625 8.46663C13.6916 8.18329 13.7416 7.88329 13.7416 7.57496C13.75 5.50829 12.0666 3.83329 9.99998 3.83329C9.69165 3.83329 9.39998 3.87496 9.10831 3.94996ZM1.67498 1.22496L3.90831 3.45829C2.53358 4.53426 1.47185 5.95853 0.833313 7.58329C2.27498 11.2416 5.83331 13.8333 9.99998 13.8333C11.2666 13.8333 12.4833 13.5916 13.6 13.15L16.45 16L17.625 14.825L2.84998 0.041626L1.67498 1.22496ZM7.92498 7.47496L10.1 9.64996C10.0666 9.65829 10.0333 9.66663 9.99998 9.66663C9.44744 9.66663 8.91754 9.44713 8.52684 9.05643C8.13614 8.66573 7.91665 8.13583 7.91665 7.58329C7.91665 7.54163 7.92498 7.51663 7.92498 7.47496V7.47496ZM5.09165 4.64163L6.54998 6.09996C6.3524 6.56956 6.25041 7.07383 6.24998 7.58329C6.25106 8.20331 6.40562 8.81342 6.69987 9.35917C6.99412 9.90492 7.4189 10.3693 7.93631 10.711C8.45371 11.0526 9.04765 11.2608 9.66512 11.3171C10.2826 11.3733 10.9044 11.2758 11.475 11.0333L12.2916 11.85C11.5583 12.05 10.7916 12.1666 9.99998 12.1666C8.4677 12.1717 6.96508 11.7443 5.66488 10.9335C4.36467 10.1227 3.31966 8.96149 2.64998 7.58329C3.23331 6.39163 4.08331 5.40829 5.09165 4.64163Z" fill="#8C94B1"/>
</svg>
