<svg width="20" height="13" viewBox="0 0 20 13" fill="none" xmlns="http://www.w3.org/2000/svg">
<path d="M9.99998 2.00004C11.5323 1.99495 13.0349 2.42236 14.3351 3.23315C15.6353 4.04393 16.6803 5.20517 17.35 6.58337C15.975 9.39171 13.1583 11.1667 9.99998 11.1667C6.84165 11.1667 4.02498 9.39171 2.64998 6.58337C3.31966 5.20517 4.36467 4.04393 5.66488 3.23315C6.96508 2.42236 8.4677 1.99495 9.99998 2.00004V2.00004ZM9.99998 0.333374C5.83331 0.333374 2.27498 2.92504 0.833313 6.58337C2.27498 10.2417 5.83331 12.8334 9.99998 12.8334C14.1666 12.8334 17.725 10.2417 19.1666 6.58337C17.725 2.92504 14.1666 0.333374 9.99998 0.333374ZM9.99998 4.50004C10.5525 4.50004 11.0824 4.71953 11.4731 5.11023C11.8638 5.50094 12.0833 6.03084 12.0833 6.58337C12.0833 7.13591 11.8638 7.66581 11.4731 8.05651C11.0824 8.44721 10.5525 8.66671 9.99998 8.66671C9.44744 8.66671 8.91754 8.44721 8.52684 8.05651C8.13614 7.66581 7.91665 7.13591 7.91665 6.58337C7.91665 6.03084 8.13614 5.50094 8.52684 5.11023C8.91754 4.71953 9.44744 4.50004 9.99998 4.50004V4.50004ZM9.99998 2.83337C7.93331 2.83337 6.24998 4.51671 6.24998 6.58337C6.24998 8.65004 7.93331 10.3334 9.99998 10.3334C12.0666 10.3334 13.75 8.65004 13.75 6.58337C13.75 4.51671 12.0666 2.83337 9.99998 2.83337Z" fill="#8C94B1"/>
</svg>
